<?xml version="1.0" encoding="UTF-8"?>
<svg id="Layer_1" xmlns="http://www.w3.org/2000/svg" version="1.1" viewBox="0 0 800 800">
  <!-- Generator: Adobe Illustrator 29.2.1, SVG Export Plug-In . SVG Version: 2.1.0 Build 116)  -->
  <defs>
    <style>
      .st0 {
        fill: #ee3683;
      }

      .st1 {
        letter-spacing: .1em;
      }

      .st1, .st2, .st3, .st4, .st5, .st6 {
        isolation: isolate;
      }

      .st1, .st2, .st4, .st5, .st6 {
        fill: #231f20;
        font-family: Kugile, Kugile;
        font-size: 66.2px;
      }

      .st2 {
        letter-spacing: .1em;
      }

      .st4 {
        letter-spacing: .1em;
      }

      .st5 {
        letter-spacing: 0em;
      }

      .st6 {
        letter-spacing: .1em;
      }
    </style>
  </defs>
  <g>
    <path class="st0" d="M239.9,81.9c-27.4,0-49.6,22.2-49.6,49.6v134c0,19.4,22.1,30.7,37.8,19.2l133.9-97.6v-105.2h-122.1Z"/>
    <path d="M393.2,381.9c-21.3,15.9-35.4,26.4-35.4,26.4,0,0-1.6,2.1-1.6,3.5l1.7,198.1h-114.2c-30.1,0-54.4-24.9-54.4-55.7l1.7-82.9v-106.3c0-27,12.6-52.4,34-68.4l131.3-97.9v-.8l129.3-95.8c1.5-1.1,56.2,73.4,82.8,109.8,8.1,11,6.2,26.4-4.2,35.2-26.7,22.6-78.2,65.5-126.3,101.3"/>
    <path d="M566.6,446.8v142.6c0,10.5-9.7,19-21.8,19.1l-150.1,1.5c0,0-.2,0-.2-.2l-1.8-219c0-5.6,2.6-10.9,7.1-14.3,11.2-8.3,23.9-17.8,37.4-27.9,0,0,.1,0,.2,0l116.5,76c8,5.2,12.7,13.4,12.7,22.1h0Z"/>
  </g>
  <g class="st3">
    <text class="st1" transform="translate(196.5 684)"><tspan x="0" y="0">K</tspan></text>
    <text class="st6" transform="translate(254.7 684)"><tspan x="0" y="0">r</tspan></text>
    <text class="st4" transform="translate(290.4 684)"><tspan x="0" y="0">e</tspan></text>
    <text class="st5" transform="translate(335.8 684)"><tspan x="0" y="0">a</tspan></text>
    <text class="st2" transform="translate(381.4 684)"><tspan x="0" y="0">t</tspan></text>
    <text class="st5" transform="translate(413.9 684)"><tspan x="0" y="0">i</tspan></text>
    <text class="st2" transform="translate(437.1 684)"><tspan x="0" y="0">v</tspan></text>
    <text class="st6" transform="translate(496.9 684)"><tspan x="0" y="0">it</tspan></text>
    <text class="st1" transform="translate(552.2 684)"><tspan x="0" y="0">y</tspan></text>
  </g>
  <circle class="st0" cx="626.2" cy="581.2" r="21.8"/>
</svg>